<mxfile host="app.diagrams.net" modified="2022-06-02T20:26:38.279Z" agent="5.0 (Windows NT 10.0; Win64; x64) AppleWebKit/537.36 (KHTML, like Gecko) Chrome/102.0.5005.61 Safari/537.36" etag="J2IG3XZNHo9xat8B5_kD" version="18.1.3" type="github">
  <diagram id="FUrydyEFK-NKsZXM2_vT" name="Page-1">
    <mxGraphModel dx="731" dy="388" grid="1" gridSize="10" guides="1" tooltips="1" connect="1" arrows="1" fold="1" page="1" pageScale="1" pageWidth="850" pageHeight="1100" math="0" shadow="0">
      <root>
        <mxCell id="0" />
        <mxCell id="1" parent="0" />
        <mxCell id="_4vvvY8Deeb2kWK_XAvJ-1" value="&lt;font style=&quot;font-size: 14px;&quot;&gt;Ext A (External entity)&lt;/font&gt;" style="rounded=0;whiteSpace=wrap;html=1;" vertex="1" parent="1">
          <mxGeometry x="60" y="60" width="110" height="50" as="geometry" />
        </mxCell>
        <mxCell id="_4vvvY8Deeb2kWK_XAvJ-3" value="&lt;font style=&quot;font-size: 14px;&quot;&gt;Top level process&lt;/font&gt;" style="ellipse;whiteSpace=wrap;html=1;aspect=fixed;" vertex="1" parent="1">
          <mxGeometry x="270" y="26.25" width="117.5" height="117.5" as="geometry" />
        </mxCell>
        <mxCell id="_4vvvY8Deeb2kWK_XAvJ-4" value="" style="endArrow=classic;html=1;rounded=0;exitX=1;exitY=0.5;exitDx=0;exitDy=0;entryX=0;entryY=0.5;entryDx=0;entryDy=0;" edge="1" parent="1" source="_4vvvY8Deeb2kWK_XAvJ-1" target="_4vvvY8Deeb2kWK_XAvJ-3">
          <mxGeometry width="50" height="50" relative="1" as="geometry">
            <mxPoint x="220" y="140" as="sourcePoint" />
            <mxPoint x="250" y="110" as="targetPoint" />
          </mxGeometry>
        </mxCell>
        <mxCell id="_4vvvY8Deeb2kWK_XAvJ-5" value="" style="endArrow=classic;html=1;rounded=0;entryX=0;entryY=0.5;entryDx=0;entryDy=0;exitX=1;exitY=0.5;exitDx=0;exitDy=0;" edge="1" parent="1" source="_4vvvY8Deeb2kWK_XAvJ-3" target="_4vvvY8Deeb2kWK_XAvJ-6">
          <mxGeometry width="50" height="50" relative="1" as="geometry">
            <mxPoint x="400" y="220" as="sourcePoint" />
            <mxPoint x="510" y="90" as="targetPoint" />
          </mxGeometry>
        </mxCell>
        <mxCell id="_4vvvY8Deeb2kWK_XAvJ-6" value="&lt;font style=&quot;font-size: 14px;&quot;&gt;Ext B&lt;/font&gt;" style="rounded=0;whiteSpace=wrap;html=1;" vertex="1" parent="1">
          <mxGeometry x="490" y="60" width="110" height="50" as="geometry" />
        </mxCell>
        <mxCell id="_4vvvY8Deeb2kWK_XAvJ-8" value="&lt;font style=&quot;font-size: 14px;&quot;&gt;Ext A&lt;/font&gt;" style="rounded=0;whiteSpace=wrap;html=1;" vertex="1" parent="1">
          <mxGeometry x="60" y="233.75" width="110" height="50" as="geometry" />
        </mxCell>
        <mxCell id="_4vvvY8Deeb2kWK_XAvJ-10" value="" style="endArrow=classic;html=1;rounded=0;exitX=1;exitY=0.5;exitDx=0;exitDy=0;entryX=0;entryY=1;entryDx=0;entryDy=0;" edge="1" parent="1" source="_4vvvY8Deeb2kWK_XAvJ-8" target="_4vvvY8Deeb2kWK_XAvJ-14">
          <mxGeometry width="50" height="50" relative="1" as="geometry">
            <mxPoint x="218.75" y="313.75" as="sourcePoint" />
            <mxPoint x="260" y="259" as="targetPoint" />
            <Array as="points">
              <mxPoint x="252" y="259" />
            </Array>
          </mxGeometry>
        </mxCell>
        <mxCell id="_4vvvY8Deeb2kWK_XAvJ-11" value="" style="endArrow=classic;html=1;rounded=0;entryX=0;entryY=0.5;entryDx=0;entryDy=0;exitX=1;exitY=0.5;exitDx=0;exitDy=0;" edge="1" parent="1" source="_4vvvY8Deeb2kWK_XAvJ-16" target="_4vvvY8Deeb2kWK_XAvJ-12">
          <mxGeometry width="50" height="50" relative="1" as="geometry">
            <mxPoint x="440" y="260" as="sourcePoint" />
            <mxPoint x="508.75" y="263.75" as="targetPoint" />
            <Array as="points">
              <mxPoint x="460" y="310" />
              <mxPoint x="460" y="259" />
            </Array>
          </mxGeometry>
        </mxCell>
        <mxCell id="_4vvvY8Deeb2kWK_XAvJ-12" value="&lt;font style=&quot;font-size: 14px;&quot;&gt;Ext B&lt;/font&gt;" style="rounded=0;whiteSpace=wrap;html=1;" vertex="1" parent="1">
          <mxGeometry x="490" y="233.75" width="110" height="50" as="geometry" />
        </mxCell>
        <mxCell id="_4vvvY8Deeb2kWK_XAvJ-13" value="" style="swimlane;startSize=0;fontSize=14;" vertex="1" parent="1">
          <mxGeometry x="235" y="190" width="190" height="151.25" as="geometry" />
        </mxCell>
        <mxCell id="_4vvvY8Deeb2kWK_XAvJ-19" style="edgeStyle=orthogonalEdgeStyle;rounded=0;orthogonalLoop=1;jettySize=auto;html=1;entryX=0;entryY=0.5;entryDx=0;entryDy=0;fontSize=14;" edge="1" parent="_4vvvY8Deeb2kWK_XAvJ-13" source="_4vvvY8Deeb2kWK_XAvJ-14" target="_4vvvY8Deeb2kWK_XAvJ-15">
          <mxGeometry relative="1" as="geometry" />
        </mxCell>
        <mxCell id="_4vvvY8Deeb2kWK_XAvJ-14" value="1" style="ellipse;whiteSpace=wrap;html=1;aspect=fixed;fontSize=14;" vertex="1" parent="_4vvvY8Deeb2kWK_XAvJ-13">
          <mxGeometry x="11.25" y="11.25" width="40" height="40" as="geometry" />
        </mxCell>
        <mxCell id="_4vvvY8Deeb2kWK_XAvJ-15" value="2" style="ellipse;whiteSpace=wrap;html=1;aspect=fixed;fontSize=14;" vertex="1" parent="_4vvvY8Deeb2kWK_XAvJ-13">
          <mxGeometry x="75" y="11.25" width="40" height="40" as="geometry" />
        </mxCell>
        <mxCell id="_4vvvY8Deeb2kWK_XAvJ-16" value="3" style="ellipse;whiteSpace=wrap;html=1;aspect=fixed;fontSize=14;" vertex="1" parent="_4vvvY8Deeb2kWK_XAvJ-13">
          <mxGeometry x="55" y="98.75" width="40" height="40" as="geometry" />
        </mxCell>
        <mxCell id="_4vvvY8Deeb2kWK_XAvJ-17" value="4" style="ellipse;whiteSpace=wrap;html=1;aspect=fixed;fontSize=14;" vertex="1" parent="_4vvvY8Deeb2kWK_XAvJ-13">
          <mxGeometry x="145" y="11.25" width="40" height="40" as="geometry" />
        </mxCell>
        <mxCell id="_4vvvY8Deeb2kWK_XAvJ-18" value="" style="edgeStyle=orthogonalEdgeStyle;rounded=0;orthogonalLoop=1;jettySize=auto;html=1;fontSize=14;" edge="1" parent="_4vvvY8Deeb2kWK_XAvJ-13" source="_4vvvY8Deeb2kWK_XAvJ-15" target="_4vvvY8Deeb2kWK_XAvJ-17">
          <mxGeometry relative="1" as="geometry" />
        </mxCell>
        <mxCell id="_4vvvY8Deeb2kWK_XAvJ-21" value="" style="endArrow=classic;html=1;rounded=0;fontSize=14;entryX=0;entryY=0.5;entryDx=0;entryDy=0;exitX=0.5;exitY=1;exitDx=0;exitDy=0;" edge="1" parent="_4vvvY8Deeb2kWK_XAvJ-13" source="_4vvvY8Deeb2kWK_XAvJ-14" target="_4vvvY8Deeb2kWK_XAvJ-16">
          <mxGeometry width="50" height="50" relative="1" as="geometry">
            <mxPoint x="165" y="21.25" as="sourcePoint" />
            <mxPoint x="215" y="-28.75" as="targetPoint" />
          </mxGeometry>
        </mxCell>
        <mxCell id="_4vvvY8Deeb2kWK_XAvJ-27" style="edgeStyle=orthogonalEdgeStyle;rounded=0;orthogonalLoop=1;jettySize=auto;html=1;exitX=0.5;exitY=0;exitDx=0;exitDy=0;entryX=1;entryY=1;entryDx=0;entryDy=0;fontSize=14;" edge="1" parent="_4vvvY8Deeb2kWK_XAvJ-13" source="_4vvvY8Deeb2kWK_XAvJ-25" target="_4vvvY8Deeb2kWK_XAvJ-15">
          <mxGeometry relative="1" as="geometry" />
        </mxCell>
        <mxCell id="_4vvvY8Deeb2kWK_XAvJ-25" value="F1" style="shape=partialRectangle;whiteSpace=wrap;html=1;left=0;right=0;fillColor=none;fontSize=14;" vertex="1" parent="_4vvvY8Deeb2kWK_XAvJ-13">
          <mxGeometry x="95" y="80" width="20" height="18.75" as="geometry" />
        </mxCell>
        <mxCell id="_4vvvY8Deeb2kWK_XAvJ-29" style="edgeStyle=orthogonalEdgeStyle;rounded=0;orthogonalLoop=1;jettySize=auto;html=1;exitX=0.5;exitY=0;exitDx=0;exitDy=0;entryX=0.5;entryY=1;entryDx=0;entryDy=0;fontSize=14;startArrow=classic;startFill=1;endArrow=none;endFill=0;" edge="1" parent="_4vvvY8Deeb2kWK_XAvJ-13" source="_4vvvY8Deeb2kWK_XAvJ-28" target="_4vvvY8Deeb2kWK_XAvJ-17">
          <mxGeometry relative="1" as="geometry" />
        </mxCell>
        <mxCell id="_4vvvY8Deeb2kWK_XAvJ-28" value="F2" style="shape=partialRectangle;whiteSpace=wrap;html=1;left=0;right=0;fillColor=none;fontSize=14;" vertex="1" parent="_4vvvY8Deeb2kWK_XAvJ-13">
          <mxGeometry x="155" y="70" width="20" height="18.75" as="geometry" />
        </mxCell>
        <mxCell id="_4vvvY8Deeb2kWK_XAvJ-23" value="" style="endArrow=classic;html=1;rounded=0;fontSize=14;entryX=0;entryY=0;entryDx=0;entryDy=0;exitX=1;exitY=1;exitDx=0;exitDy=0;" edge="1" parent="1" source="_4vvvY8Deeb2kWK_XAvJ-17" target="_4vvvY8Deeb2kWK_XAvJ-12">
          <mxGeometry width="50" height="50" relative="1" as="geometry">
            <mxPoint x="400" y="210" as="sourcePoint" />
            <mxPoint x="450" y="160" as="targetPoint" />
          </mxGeometry>
        </mxCell>
        <mxCell id="_4vvvY8Deeb2kWK_XAvJ-30" value="" style="endArrow=none;dashed=1;html=1;dashPattern=1 3;strokeWidth=2;rounded=0;fontSize=14;entryX=0.5;entryY=1;entryDx=0;entryDy=0;exitX=0;exitY=0;exitDx=0;exitDy=0;" edge="1" parent="1" source="_4vvvY8Deeb2kWK_XAvJ-13" target="_4vvvY8Deeb2kWK_XAvJ-3">
          <mxGeometry width="50" height="50" relative="1" as="geometry">
            <mxPoint x="310" y="150" as="sourcePoint" />
            <mxPoint x="360" y="100" as="targetPoint" />
          </mxGeometry>
        </mxCell>
        <mxCell id="_4vvvY8Deeb2kWK_XAvJ-31" value="" style="endArrow=none;dashed=1;html=1;dashPattern=1 3;strokeWidth=2;rounded=0;fontSize=14;entryX=1;entryY=0;entryDx=0;entryDy=0;exitX=0.5;exitY=1;exitDx=0;exitDy=0;" edge="1" parent="1" source="_4vvvY8Deeb2kWK_XAvJ-3" target="_4vvvY8Deeb2kWK_XAvJ-13">
          <mxGeometry width="50" height="50" relative="1" as="geometry">
            <mxPoint x="310" y="150" as="sourcePoint" />
            <mxPoint x="360" y="100" as="targetPoint" />
          </mxGeometry>
        </mxCell>
        <mxCell id="_4vvvY8Deeb2kWK_XAvJ-44" value="" style="edgeStyle=orthogonalEdgeStyle;rounded=0;orthogonalLoop=1;jettySize=auto;html=1;fontSize=14;" edge="1" parent="1" source="_4vvvY8Deeb2kWK_XAvJ-32" target="_4vvvY8Deeb2kWK_XAvJ-38">
          <mxGeometry relative="1" as="geometry" />
        </mxCell>
        <mxCell id="_4vvvY8Deeb2kWK_XAvJ-32" value="&lt;font style=&quot;font-size: 14px;&quot;&gt;Ext A&lt;/font&gt;" style="rounded=0;whiteSpace=wrap;html=1;" vertex="1" parent="1">
          <mxGeometry x="65" y="395" width="100" height="50" as="geometry" />
        </mxCell>
        <mxCell id="_4vvvY8Deeb2kWK_XAvJ-33" value="" style="endArrow=none;dashed=1;html=1;dashPattern=1 3;strokeWidth=2;rounded=0;fontSize=14;entryX=0.5;entryY=1;entryDx=0;entryDy=0;exitX=0;exitY=0;exitDx=0;exitDy=0;" edge="1" parent="1" source="_4vvvY8Deeb2kWK_XAvJ-34" target="_4vvvY8Deeb2kWK_XAvJ-14">
          <mxGeometry width="50" height="50" relative="1" as="geometry">
            <mxPoint x="250" y="430" as="sourcePoint" />
            <mxPoint x="213.75" y="310" as="targetPoint" />
          </mxGeometry>
        </mxCell>
        <mxCell id="_4vvvY8Deeb2kWK_XAvJ-34" value="" style="swimlane;startSize=0;fontSize=14;" vertex="1" parent="1">
          <mxGeometry x="230" y="390" width="200" height="120" as="geometry" />
        </mxCell>
        <mxCell id="_4vvvY8Deeb2kWK_XAvJ-42" style="edgeStyle=orthogonalEdgeStyle;rounded=0;orthogonalLoop=1;jettySize=auto;html=1;exitX=1;exitY=0.5;exitDx=0;exitDy=0;entryX=0;entryY=0.5;entryDx=0;entryDy=0;fontSize=14;" edge="1" parent="_4vvvY8Deeb2kWK_XAvJ-34" source="_4vvvY8Deeb2kWK_XAvJ-38" target="_4vvvY8Deeb2kWK_XAvJ-39">
          <mxGeometry relative="1" as="geometry" />
        </mxCell>
        <mxCell id="_4vvvY8Deeb2kWK_XAvJ-38" value="1.1" style="ellipse;whiteSpace=wrap;html=1;aspect=fixed;fontSize=14;" vertex="1" parent="_4vvvY8Deeb2kWK_XAvJ-34">
          <mxGeometry x="11.879999999999995" y="10" width="40" height="40" as="geometry" />
        </mxCell>
        <mxCell id="_4vvvY8Deeb2kWK_XAvJ-43" value="" style="edgeStyle=orthogonalEdgeStyle;rounded=0;orthogonalLoop=1;jettySize=auto;html=1;fontSize=14;endArrow=none;endFill=0;startArrow=classic;startFill=1;" edge="1" parent="_4vvvY8Deeb2kWK_XAvJ-34" source="_4vvvY8Deeb2kWK_XAvJ-39" target="_4vvvY8Deeb2kWK_XAvJ-40">
          <mxGeometry relative="1" as="geometry" />
        </mxCell>
        <mxCell id="_4vvvY8Deeb2kWK_XAvJ-50" value="" style="edgeStyle=orthogonalEdgeStyle;rounded=0;orthogonalLoop=1;jettySize=auto;html=1;fontSize=14;startArrow=none;startFill=0;endArrow=classic;endFill=1;" edge="1" parent="_4vvvY8Deeb2kWK_XAvJ-34" source="_4vvvY8Deeb2kWK_XAvJ-39" target="_4vvvY8Deeb2kWK_XAvJ-49">
          <mxGeometry relative="1" as="geometry" />
        </mxCell>
        <mxCell id="_4vvvY8Deeb2kWK_XAvJ-39" value="1.2" style="ellipse;whiteSpace=wrap;html=1;aspect=fixed;fontSize=14;" vertex="1" parent="_4vvvY8Deeb2kWK_XAvJ-34">
          <mxGeometry x="75.63" y="10" width="40" height="40" as="geometry" />
        </mxCell>
        <mxCell id="_4vvvY8Deeb2kWK_XAvJ-40" value="1.3" style="ellipse;whiteSpace=wrap;html=1;aspect=fixed;fontSize=14;" vertex="1" parent="_4vvvY8Deeb2kWK_XAvJ-34">
          <mxGeometry x="75.63" y="70" width="40" height="40" as="geometry" />
        </mxCell>
        <mxCell id="_4vvvY8Deeb2kWK_XAvJ-48" value="" style="endArrow=classic;html=1;rounded=0;fontSize=14;entryX=0;entryY=0.5;entryDx=0;entryDy=0;exitX=0.5;exitY=1;exitDx=0;exitDy=0;" edge="1" parent="_4vvvY8Deeb2kWK_XAvJ-34" source="_4vvvY8Deeb2kWK_XAvJ-38" target="_4vvvY8Deeb2kWK_XAvJ-40">
          <mxGeometry width="50" height="50" relative="1" as="geometry">
            <mxPoint x="80" y="70" as="sourcePoint" />
            <mxPoint x="130" y="20" as="targetPoint" />
          </mxGeometry>
        </mxCell>
        <mxCell id="_4vvvY8Deeb2kWK_XAvJ-49" value="1.4" style="ellipse;whiteSpace=wrap;html=1;aspect=fixed;fontSize=14;" vertex="1" parent="_4vvvY8Deeb2kWK_XAvJ-34">
          <mxGeometry x="140" y="10" width="40" height="40" as="geometry" />
        </mxCell>
        <mxCell id="_4vvvY8Deeb2kWK_XAvJ-35" value="" style="endArrow=none;dashed=1;html=1;dashPattern=1 3;strokeWidth=2;rounded=0;fontSize=14;entryX=0.5;entryY=1;entryDx=0;entryDy=0;exitX=1;exitY=0;exitDx=0;exitDy=0;" edge="1" parent="1" source="_4vvvY8Deeb2kWK_XAvJ-34" target="_4vvvY8Deeb2kWK_XAvJ-14">
          <mxGeometry width="50" height="50" relative="1" as="geometry">
            <mxPoint x="345" y="520" as="sourcePoint" />
            <mxPoint x="315" y="370" as="targetPoint" />
            <Array as="points">
              <mxPoint x="290" y="360" />
            </Array>
          </mxGeometry>
        </mxCell>
        <mxCell id="_4vvvY8Deeb2kWK_XAvJ-45" value="Process 1" style="text;html=1;align=center;verticalAlign=middle;resizable=0;points=[];autosize=1;strokeColor=none;fillColor=none;fontSize=14;" vertex="1" parent="1">
          <mxGeometry x="250" y="370" width="70" height="20" as="geometry" />
        </mxCell>
        <mxCell id="_4vvvY8Deeb2kWK_XAvJ-51" value="" style="swimlane;startSize=0;fontSize=14;" vertex="1" parent="1">
          <mxGeometry x="445" y="390" width="200" height="120" as="geometry" />
        </mxCell>
        <mxCell id="_4vvvY8Deeb2kWK_XAvJ-52" style="edgeStyle=orthogonalEdgeStyle;rounded=0;orthogonalLoop=1;jettySize=auto;html=1;exitX=1;exitY=0.5;exitDx=0;exitDy=0;entryX=0;entryY=0.5;entryDx=0;entryDy=0;fontSize=14;" edge="1" parent="_4vvvY8Deeb2kWK_XAvJ-51" source="_4vvvY8Deeb2kWK_XAvJ-53" target="_4vvvY8Deeb2kWK_XAvJ-56">
          <mxGeometry relative="1" as="geometry" />
        </mxCell>
        <mxCell id="_4vvvY8Deeb2kWK_XAvJ-53" value="2.1" style="ellipse;whiteSpace=wrap;html=1;aspect=fixed;fontSize=14;" vertex="1" parent="_4vvvY8Deeb2kWK_XAvJ-51">
          <mxGeometry x="11.879999999999995" y="10" width="40" height="40" as="geometry" />
        </mxCell>
        <mxCell id="_4vvvY8Deeb2kWK_XAvJ-55" value="" style="edgeStyle=orthogonalEdgeStyle;rounded=0;orthogonalLoop=1;jettySize=auto;html=1;fontSize=14;startArrow=none;startFill=0;endArrow=classic;endFill=1;" edge="1" parent="_4vvvY8Deeb2kWK_XAvJ-51" source="_4vvvY8Deeb2kWK_XAvJ-56" target="_4vvvY8Deeb2kWK_XAvJ-59">
          <mxGeometry relative="1" as="geometry" />
        </mxCell>
        <mxCell id="_4vvvY8Deeb2kWK_XAvJ-64" style="edgeStyle=orthogonalEdgeStyle;rounded=0;orthogonalLoop=1;jettySize=auto;html=1;exitX=0.5;exitY=1;exitDx=0;exitDy=0;entryX=0.5;entryY=0;entryDx=0;entryDy=0;fontSize=14;startArrow=none;startFill=0;endArrow=classic;endFill=1;" edge="1" parent="_4vvvY8Deeb2kWK_XAvJ-51" source="_4vvvY8Deeb2kWK_XAvJ-56" target="_4vvvY8Deeb2kWK_XAvJ-63">
          <mxGeometry relative="1" as="geometry" />
        </mxCell>
        <mxCell id="_4vvvY8Deeb2kWK_XAvJ-56" value="2.2" style="ellipse;whiteSpace=wrap;html=1;aspect=fixed;fontSize=14;" vertex="1" parent="_4vvvY8Deeb2kWK_XAvJ-51">
          <mxGeometry x="75.63" y="10" width="40" height="40" as="geometry" />
        </mxCell>
        <mxCell id="_4vvvY8Deeb2kWK_XAvJ-59" value="2.3" style="ellipse;whiteSpace=wrap;html=1;aspect=fixed;fontSize=14;" vertex="1" parent="_4vvvY8Deeb2kWK_XAvJ-51">
          <mxGeometry x="140" y="10" width="40" height="40" as="geometry" />
        </mxCell>
        <mxCell id="_4vvvY8Deeb2kWK_XAvJ-63" value="F1" style="shape=partialRectangle;whiteSpace=wrap;html=1;left=0;right=0;fillColor=none;fontSize=14;" vertex="1" parent="_4vvvY8Deeb2kWK_XAvJ-51">
          <mxGeometry x="85.63" y="80" width="20" height="18.75" as="geometry" />
        </mxCell>
        <mxCell id="_4vvvY8Deeb2kWK_XAvJ-60" value="" style="endArrow=none;dashed=1;html=1;dashPattern=1 3;strokeWidth=2;rounded=0;fontSize=14;entryX=0;entryY=0;entryDx=0;entryDy=0;exitX=0.5;exitY=1;exitDx=0;exitDy=0;" edge="1" parent="1" source="_4vvvY8Deeb2kWK_XAvJ-15" target="_4vvvY8Deeb2kWK_XAvJ-51">
          <mxGeometry width="50" height="50" relative="1" as="geometry">
            <mxPoint x="430" y="340" as="sourcePoint" />
            <mxPoint x="480" y="290" as="targetPoint" />
          </mxGeometry>
        </mxCell>
        <mxCell id="_4vvvY8Deeb2kWK_XAvJ-61" value="" style="endArrow=none;dashed=1;html=1;dashPattern=1 3;strokeWidth=2;rounded=0;fontSize=14;entryX=1;entryY=0;entryDx=0;entryDy=0;exitX=0.5;exitY=1;exitDx=0;exitDy=0;" edge="1" parent="1" source="_4vvvY8Deeb2kWK_XAvJ-15" target="_4vvvY8Deeb2kWK_XAvJ-51">
          <mxGeometry width="50" height="50" relative="1" as="geometry">
            <mxPoint x="430" y="340" as="sourcePoint" />
            <mxPoint x="480" y="290" as="targetPoint" />
            <Array as="points">
              <mxPoint x="480" y="350" />
            </Array>
          </mxGeometry>
        </mxCell>
        <mxCell id="_4vvvY8Deeb2kWK_XAvJ-62" value="Process 2" style="text;html=1;align=center;verticalAlign=middle;resizable=0;points=[];autosize=1;strokeColor=none;fillColor=none;fontSize=14;" vertex="1" parent="1">
          <mxGeometry x="470" y="370" width="70" height="20" as="geometry" />
        </mxCell>
        <mxCell id="_4vvvY8Deeb2kWK_XAvJ-65" style="edgeStyle=orthogonalEdgeStyle;rounded=0;orthogonalLoop=1;jettySize=auto;html=1;exitX=1;exitY=0.5;exitDx=0;exitDy=0;entryX=0;entryY=0.5;entryDx=0;entryDy=0;fontSize=14;startArrow=none;startFill=0;endArrow=classic;endFill=1;" edge="1" parent="1" source="_4vvvY8Deeb2kWK_XAvJ-49" target="_4vvvY8Deeb2kWK_XAvJ-53">
          <mxGeometry relative="1" as="geometry" />
        </mxCell>
        <mxCell id="_4vvvY8Deeb2kWK_XAvJ-66" value="" style="swimlane;startSize=0;fontSize=14;" vertex="1" parent="1">
          <mxGeometry x="100" y="560" width="170" height="120" as="geometry" />
        </mxCell>
        <mxCell id="_4vvvY8Deeb2kWK_XAvJ-67" style="edgeStyle=orthogonalEdgeStyle;rounded=0;orthogonalLoop=1;jettySize=auto;html=1;exitX=1;exitY=0.5;exitDx=0;exitDy=0;entryX=0;entryY=0.5;entryDx=0;entryDy=0;fontSize=14;" edge="1" parent="_4vvvY8Deeb2kWK_XAvJ-66" source="_4vvvY8Deeb2kWK_XAvJ-68" target="_4vvvY8Deeb2kWK_XAvJ-71">
          <mxGeometry relative="1" as="geometry" />
        </mxCell>
        <mxCell id="_4vvvY8Deeb2kWK_XAvJ-68" value="3.1" style="ellipse;whiteSpace=wrap;html=1;aspect=fixed;fontSize=14;" vertex="1" parent="_4vvvY8Deeb2kWK_XAvJ-66">
          <mxGeometry x="11.879999999999995" y="10" width="40" height="40" as="geometry" />
        </mxCell>
        <mxCell id="_4vvvY8Deeb2kWK_XAvJ-71" value="3.2" style="ellipse;whiteSpace=wrap;html=1;aspect=fixed;fontSize=14;" vertex="1" parent="_4vvvY8Deeb2kWK_XAvJ-66">
          <mxGeometry x="75.63" y="10" width="40" height="40" as="geometry" />
        </mxCell>
        <mxCell id="_4vvvY8Deeb2kWK_XAvJ-74" value="" style="swimlane;startSize=0;fontSize=14;" vertex="1" parent="1">
          <mxGeometry x="480" y="560" width="165" height="120" as="geometry" />
        </mxCell>
        <mxCell id="_4vvvY8Deeb2kWK_XAvJ-76" value="4.1" style="ellipse;whiteSpace=wrap;html=1;aspect=fixed;fontSize=14;" vertex="1" parent="_4vvvY8Deeb2kWK_XAvJ-74">
          <mxGeometry x="11.879999999999995" y="10" width="40" height="40" as="geometry" />
        </mxCell>
        <mxCell id="_4vvvY8Deeb2kWK_XAvJ-78" value="4.2" style="ellipse;whiteSpace=wrap;html=1;aspect=fixed;fontSize=14;" vertex="1" parent="_4vvvY8Deeb2kWK_XAvJ-74">
          <mxGeometry x="100" y="70" width="40" height="40" as="geometry" />
        </mxCell>
        <mxCell id="_4vvvY8Deeb2kWK_XAvJ-80" value="" style="endArrow=classic;html=1;rounded=0;fontSize=14;entryX=0.5;entryY=0;entryDx=0;entryDy=0;exitX=1;exitY=0.5;exitDx=0;exitDy=0;" edge="1" parent="_4vvvY8Deeb2kWK_XAvJ-74" source="_4vvvY8Deeb2kWK_XAvJ-76" target="_4vvvY8Deeb2kWK_XAvJ-78">
          <mxGeometry width="50" height="50" relative="1" as="geometry">
            <mxPoint x="-190" y="120" as="sourcePoint" />
            <mxPoint x="-140" y="70" as="targetPoint" />
            <Array as="points">
              <mxPoint x="83" y="30" />
              <mxPoint x="120" y="30" />
            </Array>
          </mxGeometry>
        </mxCell>
        <mxCell id="_4vvvY8Deeb2kWK_XAvJ-84" value="F2" style="shape=partialRectangle;whiteSpace=wrap;html=1;left=0;right=0;fillColor=none;fontSize=14;" vertex="1" parent="_4vvvY8Deeb2kWK_XAvJ-74">
          <mxGeometry x="51.879999999999995" y="60" width="20" height="18.75" as="geometry" />
        </mxCell>
        <mxCell id="_4vvvY8Deeb2kWK_XAvJ-85" value="" style="endArrow=classic;html=1;rounded=0;fontSize=14;entryX=0.75;entryY=0;entryDx=0;entryDy=0;exitX=1;exitY=1;exitDx=0;exitDy=0;" edge="1" parent="_4vvvY8Deeb2kWK_XAvJ-74" source="_4vvvY8Deeb2kWK_XAvJ-76" target="_4vvvY8Deeb2kWK_XAvJ-84">
          <mxGeometry width="50" height="50" relative="1" as="geometry">
            <mxPoint x="-190" y="-80" as="sourcePoint" />
            <mxPoint x="-140" y="-130" as="targetPoint" />
            <Array as="points">
              <mxPoint x="67" y="44" />
            </Array>
          </mxGeometry>
        </mxCell>
        <mxCell id="_4vvvY8Deeb2kWK_XAvJ-79" value="&lt;font style=&quot;font-size: 14px;&quot;&gt;Ext B&lt;/font&gt;" style="rounded=0;whiteSpace=wrap;html=1;" vertex="1" parent="1">
          <mxGeometry x="330" y="565" width="110" height="50" as="geometry" />
        </mxCell>
        <mxCell id="_4vvvY8Deeb2kWK_XAvJ-69" value="" style="edgeStyle=orthogonalEdgeStyle;rounded=0;orthogonalLoop=1;jettySize=auto;html=1;fontSize=14;startArrow=none;startFill=0;endArrow=classic;endFill=1;entryX=0;entryY=0.5;entryDx=0;entryDy=0;" edge="1" parent="1" source="_4vvvY8Deeb2kWK_XAvJ-71" target="_4vvvY8Deeb2kWK_XAvJ-79">
          <mxGeometry relative="1" as="geometry">
            <mxPoint x="240" y="590" as="targetPoint" />
          </mxGeometry>
        </mxCell>
        <mxCell id="_4vvvY8Deeb2kWK_XAvJ-81" value="" style="endArrow=none;html=1;rounded=0;fontSize=14;entryX=0;entryY=0.5;entryDx=0;entryDy=0;exitX=1;exitY=0.5;exitDx=0;exitDy=0;endFill=0;startArrow=classic;startFill=1;" edge="1" parent="1" source="_4vvvY8Deeb2kWK_XAvJ-79" target="_4vvvY8Deeb2kWK_XAvJ-78">
          <mxGeometry width="50" height="50" relative="1" as="geometry">
            <mxPoint x="290" y="680" as="sourcePoint" />
            <mxPoint x="340" y="630" as="targetPoint" />
            <Array as="points">
              <mxPoint x="460" y="590" />
              <mxPoint x="460" y="650" />
              <mxPoint x="500" y="650" />
            </Array>
          </mxGeometry>
        </mxCell>
        <mxCell id="_4vvvY8Deeb2kWK_XAvJ-82" value="" style="endArrow=classic;html=1;rounded=0;fontSize=14;entryX=0.5;entryY=0;entryDx=0;entryDy=0;exitX=0.5;exitY=1;exitDx=0;exitDy=0;" edge="1" parent="1" source="_4vvvY8Deeb2kWK_XAvJ-59" target="_4vvvY8Deeb2kWK_XAvJ-76">
          <mxGeometry width="50" height="50" relative="1" as="geometry">
            <mxPoint x="290" y="540" as="sourcePoint" />
            <mxPoint x="340" y="490" as="targetPoint" />
          </mxGeometry>
        </mxCell>
        <mxCell id="_4vvvY8Deeb2kWK_XAvJ-83" value="" style="endArrow=classic;html=1;rounded=0;fontSize=14;entryX=0.5;entryY=0;entryDx=0;entryDy=0;exitX=0;exitY=1;exitDx=0;exitDy=0;" edge="1" parent="1" source="_4vvvY8Deeb2kWK_XAvJ-40" target="_4vvvY8Deeb2kWK_XAvJ-68">
          <mxGeometry width="50" height="50" relative="1" as="geometry">
            <mxPoint x="290" y="540" as="sourcePoint" />
            <mxPoint x="340" y="490" as="targetPoint" />
          </mxGeometry>
        </mxCell>
      </root>
    </mxGraphModel>
  </diagram>
</mxfile>
